<?xml version="1.0" standalone="no"?>
<!DOCTYPE svg PUBLIC "-//W3C//DTD SVG 20010904//EN"
 "http://www.w3.org/TR/2001/REC-SVG-20010904/DTD/svg10.dtd">
<svg version="1.0" xmlns="http://www.w3.org/2000/svg"
 width="613.000000pt" height="613.000000pt" viewBox="0 0 613.000000 613.000000"
 preserveAspectRatio="xMidYMid meet">
<metadata>
Created by potrace 1.14, written by Peter Selinger 2001-2017
</metadata>
<g transform="translate(0.000000,613.000000) scale(0.100000,-0.100000)"
fill="#000000" stroke="none">
<path d="M2745 5996 c-102 -20 -250 -72 -325 -113 -192 -105 -366 -286 -467
-488 -143 -283 -160 -644 -45 -920 91 -218 262 -423 445 -533 266 -160 579
-205 875 -127 286 76 496 241 692 544 58 89 133 199 166 244 76 102 264 286
364 356 136 96 327 182 490 221 102 24 245 26 316 5 184 -55 222 -260 109
-588 -133 -386 -469 -713 -871 -846 -199 -66 -254 -75 -484 -76 l-205 -1 -160
-71 c-247 -109 -603 -263 -660 -285 l-51 -19 -60 26 c-32 15 -167 73 -299 130
-132 57 -284 123 -338 147 l-98 43 -4 75 c-5 123 -53 219 -156 315 -129 119
-439 415 -617 590 -107 105 -205 196 -219 203 -68 37 -161 -40 -133 -108 6
-15 182 -196 391 -400 209 -205 382 -383 385 -396 3 -12 3 -32 -1 -44 -7 -22
-60 -60 -83 -60 -7 0 -188 170 -403 378 -215 207 -404 383 -420 390 -64 27
-144 -47 -120 -111 8 -21 131 -145 668 -672 114 -111 133 -135 133 -161 0 -38
-26 -63 -73 -71 -34 -5 -39 -1 -199 153 -90 88 -204 197 -253 244 -50 46 -146
139 -215 205 -69 67 -137 130 -152 139 -53 35 -123 -6 -135 -78 -5 -35 -2 -40
58 -99 58 -56 453 -437 687 -662 51 -50 118 -107 148 -127 170 -115 414 -96
570 45 l52 47 68 -29 c279 -116 614 -270 614 -282 0 -12 -1222 -12 -1254 1
-37 14 -66 -3 -66 -36 0 -41 57 -149 168 -317 37 -57 42 -70 31 -83 -12 -14
-153 -143 -678 -618 -101 -91 -191 -166 -198 -166 -77 0 -207 172 -233 309 -6
34 -10 368 -10 907 l0 853 -50 47 c-87 81 -111 194 -69 329 16 51 31 78 70
118 l49 51 0 197 c0 165 3 207 19 258 47 152 146 246 298 286 46 12 137 15
478 15 l421 0 28 66 c16 37 51 100 78 140 26 41 48 77 48 79 0 2 -71 2 -158
-2 l-159 -6 -7 79 c-11 136 -36 192 -107 244 -67 48 -95 51 -412 48 -277 -3
-294 -4 -332 -25 -50 -27 -87 -65 -117 -123 -20 -39 -23 -62 -27 -173 l-3
-127 -57 -44 c-140 -108 -239 -263 -273 -426 -19 -95 -19 -2765 0 -2858 60
-286 294 -538 566 -609 59 -16 69 -22 81 -48 16 -40 70 -85 100 -85 50 0 78
25 148 130 178 265 313 420 631 720 l219 208 93 -64 c166 -115 374 -201 596
-246 148 -30 442 -32 583 -5 228 45 439 134 622 263 34 24 66 44 71 44 9 0
634 -599 647 -620 4 -7 -488 -10 -1499 -10 l-1504 0 -119 -126 c-65 -69 -119
-134 -121 -145 -3 -19 29 -19 1731 -19 l1734 0 33 -49 c40 -58 75 -81 123 -81
44 0 91 37 108 85 11 29 24 38 97 71 47 21 111 55 143 75 159 103 296 307 334
497 16 82 32 2032 17 2032 -5 0 -16 -14 -23 -32 -15 -36 -148 -225 -220 -311
l-49 -59 0 -762 c0 -843 1 -823 -65 -941 -44 -78 -115 -145 -154 -145 -6 0
-75 57 -153 127 -144 128 -428 382 -613 547 -55 49 -106 94 -113 101 -10 9 -1
28 44 96 62 91 154 271 154 300 0 10 -4 21 -10 24 -5 3 -298 6 -650 6 -352 0
-640 3 -640 8 0 20 630 295 700 305 27 4 89 0 148 -9 180 -27 331 -14 532 45
132 39 355 149 480 238 163 115 350 317 459 495 145 238 224 497 224 742 1
171 -35 290 -115 380 -30 35 -133 95 -162 95 -7 0 -42 19 -77 43 -35 24 -89
54 -119 68 l-55 24 -564 3 -564 3 19 -28 c31 -48 80 -137 107 -196 l26 -57
121 0 c130 0 138 -5 67 -42 -78 -39 -182 -113 -248 -175 -37 -35 -69 -63 -73
-63 -3 0 -6 20 -6 44 0 24 -11 88 -25 142 -74 292 -304 573 -584 714 -77 39
-121 55 -221 82 -99 26 -371 34 -475 14z m445 -324 c214 -70 384 -217 480
-417 78 -160 101 -345 64 -523 -62 -301 -305 -552 -602 -623 -73 -18 -108 -20
-222 -16 -120 4 -145 8 -225 37 -333 118 -524 376 -542 730 -12 243 64 443
233 614 168 169 349 239 599 232 101 -3 135 -8 215 -34z m-1934 4 c17 -24 18
-88 2 -104 -9 -9 -71 -12 -218 -12 -147 0 -209 3 -218 12 -7 7 -12 31 -12 54
0 72 12 75 238 72 178 -3 195 -5 208 -22z"/>
<path d="M2385 4595 c-34 -33 -34 -93 -2 -123 34 -32 100 -30 132 3 37 36 30
98 -14 132 -28 22 -89 16 -116 -12z"/>
<path d="M4995 5063 c-424 -90 -770 -396 -1043 -923 -70 -134 -143 -323 -130
-335 13 -14 236 -17 337 -6 378 44 706 230 928 526 68 90 166 287 194 390 30
109 32 246 4 294 -42 70 -134 88 -290 54z"/>
<path d="M335 933 c-118 -11 -115 0 -115 -388 l0 -316 25 -24 c32 -33 78 -33
110 0 23 22 25 32 25 115 l0 90 73 0 c40 0 96 7 124 15 67 20 136 82 160 143
22 57 22 153 0 203 -23 55 -81 114 -135 137 -48 20 -185 33 -267 25z m214
-189 c56 -46 50 -138 -10 -169 -16 -9 -56 -15 -94 -15 l-65 0 0 98 c0 54 3
102 7 105 3 4 34 7 69 7 52 0 67 -4 93 -26z"/>
<path d="M929 929 c-46 -17 -49 -38 -49 -380 l0 -320 25 -24 c32 -33 78 -33
110 0 l25 24 0 329 c0 328 0 329 -22 349 -30 27 -57 33 -89 22z"/>
<path d="M1447 930 c-64 -17 -112 -47 -165 -104 -183 -201 -108 -527 143 -622
62 -23 181 -23 244 0 60 22 105 58 121 97 12 27 11 36 -4 64 -32 59 -86 66
-139 16 -25 -23 -37 -26 -96 -26 -57 0 -74 4 -109 28 -58 38 -92 107 -92 187
0 105 54 176 153 201 40 10 54 9 91 -5 25 -10 50 -24 56 -32 8 -8 30 -14 55
-14 36 0 48 5 69 31 32 38 32 45 1 91 -50 73 -213 117 -328 88z"/>
<path d="M2401 930 c-64 -14 -123 -52 -149 -98 -29 -52 -28 -68 7 -103 40 -39
74 -38 122 6 33 29 47 35 85 35 37 0 51 -5 75 -29 58 -58 42 -86 -150 -274
-152 -147 -177 -181 -165 -221 17 -55 20 -56 256 -56 205 0 219 1 238 20 26
26 26 80 1 111 -18 22 -28 24 -121 27 l-103 4 98 95 c148 145 175 226 114 347
-52 105 -181 162 -308 136z"/>
<path d="M3241 928 c-58 -16 -61 -32 -61 -381 0 -353 0 -352 72 -363 30 -5 41
-2 62 19 24 24 26 33 26 115 l0 89 93 5 c111 6 171 31 223 91 110 130 68 314
-95 405 -37 21 -261 35 -320 20z m266 -178 c38 -23 51 -71 33 -125 -16 -47
-52 -65 -135 -65 l-65 0 0 105 0 105 68 0 c49 0 76 -5 99 -20z"/>
<path d="M3895 932 c-11 -2 -29 -13 -41 -23 -20 -19 -21 -31 -26 -337 -6 -331
-3 -360 37 -375 21 -9 337 -10 358 -2 31 13 50 61 37 99 -15 46 -45 56 -165
56 l-105 0 0 266 c0 154 -4 273 -10 284 -11 21 -56 38 -85 32z"/>
<path d="M4958 931 c-66 -7 -86 -23 -94 -72 -5 -28 -1 -41 18 -64 23 -26 31
-28 94 -29 l69 -1 5 -272 c6 -302 5 -299 73 -310 31 -5 40 -1 67 25 l30 30 0
265 c0 260 0 265 20 260 11 -3 41 -2 66 2 87 13 121 83 70 142 l-24 28 -169 1
c-92 1 -194 -1 -225 -5z"/>
<path d="M4583 908 c-11 -13 -55 -106 -97 -208 -43 -102 -100 -237 -127 -299
-57 -133 -61 -170 -23 -200 59 -47 118 -15 157 84 21 55 26 60 62 67 22 5 80
7 129 6 l89 -3 28 -69 c34 -83 44 -95 92 -103 31 -5 40 -1 68 26 25 26 30 37
24 59 -11 45 -162 418 -237 585 -25 54 -58 77 -111 77 -22 0 -40 -8 -54 -22z
m108 -333 c12 -27 23 -53 26 -57 2 -5 -28 -8 -67 -8 l-70 0 16 38 c9 20 24 59
32 85 l16 49 13 -29 c7 -15 22 -50 34 -78z"/>
<path d="M5474 905 l-25 -25 3 -320 3 -320 27 -27 27 -27 158 2 c87 1 168 2
181 2 13 0 34 11 47 25 33 32 33 74 -1 106 -24 23 -32 24 -149 24 l-124 0 -3
63 c-2 35 -1 66 1 68 2 2 55 4 116 4 108 0 113 1 139 26 33 33 33 68 1 99 -23
24 -30 25 -138 25 l-115 0 -5 33 c-3 17 -4 48 -3 67 l1 35 133 5 c126 5 135 6
153 29 10 13 19 32 19 43 0 27 -26 74 -45 82 -9 3 -97 6 -196 6 -178 0 -180 0
-205 -25z"/>
</g>
</svg>
